<svg xmlns="http://www.w3.org/2000/svg" xml:space="preserve" width="100mm" height="100mm" viewBox="0 0 100 100"><defs><linearGradient id="a" x1="60" x2="60" y1="-725.98798" y2="-845.98798" gradientTransform="matrix(3.30492 0 0 -3.30492 0 -2675.92)" gradientUnits="userSpaceOnUse"><stop offset="0" stop-color="#0c53af"/><stop offset="1" stop-color="#32a1e9"/></linearGradient><linearGradient id="c" x1="-550.98297" x2="-550.98297" y1="-440.505" y2="-442.505" gradientTransform="matrix(71.05573 0 0 -71.05573 39290.666 -31483.429)" gradientUnits="userSpaceOnUse"><stop offset="0" stop-color="#ffc700"/><stop offset="1" stop-color="#ffea00"/></linearGradient><linearGradient id="b" x1="60" x2="60" y1="-725.98798" y2="-845.98798" gradientTransform="matrix(1 0 0 -1 0 -725.988)" gradientUnits="userSpaceOnUse"><stop offset="0" stop-color="#0c53af"/><stop offset="1" stop-color="#32a1e9"/></linearGradient><linearGradient id="d" x1="-550.98297" x2="-550.98297" y1="-440.505" y2="-442.505" gradientTransform="matrix(21.5 0 0 -21.5 11888.545 -9442.306)" gradientUnits="userSpaceOnUse"><stop offset="0" stop-color="#ffc700"/><stop offset="1" stop-color="#ffea00"/></linearGradient></defs><g transform="matrix(.83333 0 0 .83333 0 0)"><path fill="url(#a)" d="M26 0h68a25.948 25.948 0 0 1 26 26v68a25.948 25.948 0 0 1-26 26H26A25.948 25.948 0 0 1 0 94V26A25.948 25.948 0 0 1 26 0Z" style="fill:url(#b)"/><circle cx="80.900002" cy="50.059971" r="21.5" fill="url(#c)" style="fill:url(#d)"/><path fill="#fff" fill-rule="evenodd" d="M33.475 91.27a16.52 16.52 0 0 1-4-32.4 21 21 0 0 1 40.9-6.3 21.861 21.861 0 0 1 3.6-.3 19.5 19.5 0 0 1 0 39z" opacity="0.88"/></g></svg>